<svg version="1.1" xmlns="http://www.w3.org/2000/svg" x="0px" y="0px" width="29.9px" height="48px" viewBox="0 0 29.9 48" enable-background="new 0 0 29.9 48" xml:space="preserve"><style>path{fill:#76b9d6}</style><path d="M18.5,2.1c0.4-0.4,0.3-1.2,0.1-1.7c-0.4-0.9-1.4,0-0.9,0.3C18.1,1.1,18.3,1.6,18.5,2.1z M15.3,7.6c0.9,0,0.5-2.2,0.4-2.7c-0.4-1.2-1.2-1.5-2.3-1.7c-0.1,0.3,0.2,0.8,0.3,1.2C14.4,5.1,15.3,6.5,15.3,7.6z M29.9,20c-0.1-0.3-0.4-1.1-0.6-1.2c-0.5-0.3-0.8,0.7-1,1.1c-0.6,0.9-1.8,1.5-2.6,0.6c-0.7,0.6-1.3,1.7-1.7,2.4c-0.3,0.4-0.3,0.9-0.5,1.3c-0.3,0.5-0.5,0.7-0.6,1.3c-0.1,0.6-0.1,1-0.5,1.6c-0.3,0.4-0.7,0.8-1.1,1.2c-0.3,0.4-0.9,0.6-1.3,0.8c-0.5,0.3-0.6,0.5-0.8,1c-0.2,0.5-0.3,1-0.7,1.4C17.9,32,17.7,32,18,32.7c0.2,0.5,0,0.9-0.1,1.4c-0.1,0.5-0.6,0.7-0.8,1.2c-0.2,0.6-0.3,0.8-0.9,1.1c-0.5,0.3-1.2,0.4-1.8,0.5c-1,0.2-1.5-0.8-2-1.6c-0.3-0.4-1.9-1-2.1-0.3c-0.1,0.5-0.1,0.9-0.4,1.3c-0.3,0.4-0.5,0.5-0.7,1c-0.2,0.4-0.3,0.9-0.5,1.4c-0.2,0.5-0.4,0.5-0.9,0.7c-0.1,0-1.1-0.2-1.2-0.2c-0.5-0.3-0.7-0.6-1-1.1c-0.9,0.3-1.5,0.5-1.8,1.5c-0.2,0.9-0.1,1.7,0.1,2.5C4,42.9,4.3,43.9,4,44.8c-0.3,1-0.5,1.7-0.4,2.7c4.2,0.2,8.4,0.3,12.6,0.4c2.3,0,4.7,0.1,7,0.1c0.3,0,1.1,0.2,1.4,0c0.1-0.1,0-0.6,0-0.7c0.1-0.3,0.2-0.5,0.2-0.8c0.1-0.9-0.8-1.7-0.7-2.7c0.1-1,0-2.1,0.2-3.1c0.1-0.4,0.4-0.9,0.6-1.4c0.1-0.4,0.2-0.8,0.5-1.1c0.2-0.3,0.7,0.1,0.9-0.3c0.2-0.3,0-1.3,0-1.6c0-0.5,0.1-1.1,0.1-1.6c0-0.3,0.3-1,0-1.2c-0.2,0.1-0.6,0.5-0.7,0.7c-0.2,0.4-0.5,0.6-0.9,1c-0.7-0.5-0.6-0.6-0.2-1.3c0.3-0.6,0.4-1.2,0.9-1.7c0.5-0.4,0.9-0.9,1-1.5c0.1-0.4,0.2-1.5,0.7-1.5c0.1,0.3,0.3,1,0.8,0.8c0-0.3,0.2-0.9,0-1.1c-0.2-0.5-0.5-0.4-0.8-0.7c-0.2-0.3-0.4-0.8-0.6-1.1c-0.3-0.4,0.1-0.7-0.1-1.1c-0.2-0.4-0.6-0.4-0.6-1c0-0.4-0.3-0.5,0-0.9c0.3-0.4,0.7-2,1.5-1.3l0.3-0.2c0.5,0.4,0,1.1,0.5,1.4c0.1-0.1,0.2-0.7,0.2-0.9c0-0.5-0.1-0.6,0.1-1.1c0.2-0.4,0.8-0.3,1-0.6C30,20.7,30,20.6,29.9,20z M4.9,26.2c0.6,0.4,0.8,0.9,1.4,1.4C6.6,27.9,7,29,7.5,29c0.1,0,0.7-0.4,0.8-0.4c0.3-0.2,0.6,0,1,0c0.1-0.4-0.5-0.7-0.8-0.9c-0.3-0.3-0.1-1-0.1-1.3c0.1-0.5,0.1-1,0.2-1.5c0.1-0.7,0.4-1.2-0.2-1.6C8,23,7.9,22.4,7.4,22.3c-0.6-0.1-1.1-0.2-1.7-0.2c-0.5,0-0.8,0.2-1,0.7c-0.2,0.6,0,1-0.1,1.5C4.9,24.9,4.4,25.8,4.9,26.2z M3.8,30.5c0-0.5-0.6-0.6-1-0.7c-0.6-0.1-0.8-0.6-1.4-0.4c-0.5,0.2-0.8,0.5-1,1c-0.2,0.4-0.6,1-0.5,1.4c0.1,0.9,1.3,1.1,2.1,0.7C2.2,32.6,3,32.1,3,32c0.1-0.2-0.2-0.4-0.3-0.6c-0.1-0.2,0-0.5,0-0.7C3,30.4,3.4,30.5,3.8,30.5z"/></svg>
