<svg version="1.1" xmlns="http://www.w3.org/2000/svg" x="0" y="0" width="60" height="96" viewBox="0 0 60 96" enable-background="new 0 0 60 96" xml:space="preserve"><style>path{fill:#76b9d6}</style><path d="M35.5 1.4l0.2 0.2L36 2.1l0.2 0.3 0.2 0.5 0.1 0.4 0.1 0.1 0.2 0.3 0.1 0.2L37 4l0.1 0.1 0.1-0.1 0.1-0.2 0.3-0.9 0.1-0.5 -0.1-0.6 -0.1-0.7 -0.2-0.5 -0.3-0.4L36.6 0h-0.4l-0.4 0 -0.2 0.1 -0.4 0.5v0.4l0 0.2L35.5 1.4zM27.3 8.7l0.4 0.4 0.5 0.6 0.6 1 1.1 1.8 0.2 0.5 0.4 0.9 0.1 0.2 0 0.8 0 0.2 0.5 0 0.4-0.8 0-0.6 0.2-1.3 0.1-1 -0.2-0.8 -0.5-1.5L31 8.8l-1.1-1.4 -1.2-0.6 -0.9-0.2 -1-0.2 -0.1 0.2 0.5 1.3L27.3 8.7zM59.8 40l-0.7-1.2 -0.3-1.2 -0.2-0.1 -0.5-0.1 -0.4 0.1 -0.6 1.3 -0.6 1 -0.3 0.5 -1.9 1.3 -1.5 0.3L52 41.6l-0.7-0.8 -0.1 0.1 -1.7 2.3 -0.8 1.2 -1.3 2L47 48l-0.3 0.5 -1 1.4 -0.1 1 -0.3 2.3 -0.7 1L44 54.7l-1.9 2 -2.7 1.5 -0.6 0.4 -0.4 0.8 -0.3 0.7 -0.7 2 -0.6 0.8 -1.1 0.9 -0.1 0.5 0 0.2 0.5 1.2 0.1 0.5L36 67.3l-0.3 1.5 -1.3 1.4 -0.6 1.8 -0.6 0.4 -1.4 0.8 -3.3 0.7 -1.6-0.4 -0.8-1.2 -0.4-0.4 -0.3-0.5 -0.6-0.9 -0.5-0.6L22 69.5l-0.6-0.1L21 69.6l-0.3 0.3 -0.2 0.7 0 0.8 -0.1 0.5L20 72.2l-0.3 0.4 -0.7 0.5 -0.8 1.6 -0.4 1.1L17 78.2l-1.4 0.5 -0.2 0.1 -1.5-0.4 -0.7 0 -1.3-0.9 -0.8-1.4 -1.7 0.5 -0.3 0.1 -0.6 0.5L7.9 78l-0.3 0.9 -0.3 1.3 0.1 1.8 0.2 1.3 0.5 3.7 0 0.7 0 0.7 0 0.6 -0.8 2.8 -0.1 0.4 -0.2 0.8 0.1 1.8 3.5 0.1 9.2 0.2 12.3 0.4 11.6 0.2 5.3 0.2 0.1-0.1 0-0.7 0-0.7 0.1-0.6 0.3-0.4 0.1-0.7 0.1-0.5 -0.3-0.4 -0.2-0.3L49 90.8 48.5 90l0.1-0.4 -0.5-1.2 0.1-0.8L48 87l0.1-0.5 0-0.7 0.1-1.5 0.1-1.9 0.3-1.3 0.5-0.7 0.7-1.8 0.2-0.5 0.1-0.4 0.4-0.7 0.1-0.2 0.1-0.2 0.2-0.2 0.2-0.1 0.8 0H52l0.3 0 0.2-0.1 0.1-0.2 0.1-0.3 -0.1-0.9 0-1 0-1.5 0.2-1.5 -0.1-0.9 0.1-0.4 0.1-0.2 0.1-0.9 0.1-0.8 -0.1-0.4 -0.2-0.1 -0.6 0.4L52 68l-0.5 0.3L51 69.1l-0.4 0.4 -0.9 0.8 -0.8-0.6 -0.2-0.3 -0.1-0.3 0.1-0.5 0.4-0.5 0.6-1 0.6-1.8 0.1-0.2 0.7-0.7 0.4-0.3 0.8-1 0.4-0.5 0.5-1.3 0.1-1.3 0.1-0.2 0.5-0.5 0.3-0.9 0.4-0.1 0.7 1.5 0.4 0.2L56 60l0-1.1 0.1-1 -0.3-0.6 -0.4-0.5 -0.5 0 -0.5-0.6 -0.3-0.9L53 53.7l0-0.4 0.3-1 -0.1-0.3 -0.7-0.5 -0.5-0.9 0-0.7 -0.3-1.1 0.1-0.2 0.7-1 0.3-0.9 0.2-0.6 0.3-0.3 1-0.4 0.4-0.1 0.3 0.3 0.6-0.4 0.4 0.4 0.2 0.3 0 0.9 0 0.4 0 0.4 0.1 0.1 0.3 0.3 0.2-0.2 -0.1-1 0.3-0.5 0-0.4 -0.2-0.9 0.1-0.2 0.5-1 0.3-0.2 1.6-0.8 0.8-1.3L59.8 40zM9.2 48.8l0.2 0.7 -0.2 1.7 0.2 0.9 0.7 0.4 1.1 0.7 0.6 1.2 0.5 0.4 0.8 0.8 1.1 2.2 0.6 0.1 0.5-0.4 0.7-0.2 0.5-0.4 0.7-0.1 0.5 0.2h0.6v-0.5l-0.2-0.2L17.6 56l-0.8-0.8 -0.3-1 0.4-4.3 0.4-2.8 -0.3-0.4 -0.7-0.4L16 45.5l-0.9-0.7 -3-0.4 -1.7 0.2L10 44.9l-0.4 0.7 -0.4 1L9.1 47l0.2 0.9L9.2 48.8zM5.5 61.5l0.6-0.5 1.5 0.1 0.1-0.2 -0.9-1 -1.2-0.2 -1-0.3 -0.8-0.7 -1.2 0.5L1.4 60l-0.6 1.6 -0.7 1.6L0 63.8l0.1 0.8 0 0.2 0.7 0.3 0.4 0.4 0.6 0.1 0.4 0.3 1-0.2 0.5 0 0.7-0.4 0.1-0.3 0.8-0.6 0.3 0.1 0.3-0.1 0.1-0.5 -0.5-0.7 -0.2-0.4 0.1-0.9L5.5 61.5z"/></svg>