<?xml version="1.0" encoding="utf-8"?>
<!-- Generator: Adobe Illustrator 17.1.0, SVG Export Plug-In . SVG Version: 6.00 Build 0)  -->
<!DOCTYPE svg PUBLIC "-//W3C//DTD SVG 1.1//EN" "http://www.w3.org/Graphics/SVG/1.1/DTD/svg11.dtd">
<svg version="1.1" id="Layer_1" xmlns="http://www.w3.org/2000/svg" xmlns:xlink="http://www.w3.org/1999/xlink" x="0px" y="0px"
	 width="1501px" height="2409px" viewBox="0 0 1501 2409" enable-background="new 0 0 1501 2409" xml:space="preserve">
<g>
	<polygon fill="#0C9BFF" points="887.5,35.3 893.5,41.3 900.7,52.1 906.8,60 911.3,72.3 914,81.7 917,84.7 921.5,91 923,95.5 
		924.5,101.6 927.6,104.9 930.6,103.4 933.6,98.8 940.2,77.4 942,63.6 939.3,48.2 936.6,29.8 930.6,16 923,6.6 915.5,0.3 904.9,0.3 
		895.6,0 889.6,3 879.9,16.6 879.9,27.4 881.1,31.9 	"/>
	<polygon fill="#0C9BFF" points="682,218.5 691,227.8 703,243.2 717.8,267.9 746.1,314.3 752.2,326.7 762.4,348.4 765.4,354.4 
		766.6,374.6 766.3,380.6 778.7,379.4 789.8,359.5 790.1,345.6 795.3,313.7 798.6,287.8 792.8,267.9 779.9,229.3 775.4,220 
		748.5,184.4 718.1,168.5 695.2,163.6 669.3,158.5 666,164.5 677.7,196.8 	"/>
	<polygon fill="#0C9BFF" points="1495.6,1003.8 1479.3,974.3 1470.6,945 1466.1,942 1453.7,938.7 1442.9,941.7 1428.7,973.4 
		1413,997.8 1404.9,1011.3 1358.5,1044.2 1320.2,1051.1 1301.8,1044.8 1283.7,1024.6 1280.7,1026.1 1238.2,1084.9 1217.7,1113.8 
		1184.9,1165 1176.5,1203.3 1168.6,1215.3 1143.6,1250 1140,1275.9 1131.3,1334.1 1114.1,1358.2 1099.9,1373.2 1053.2,1424.5 
		985.1,1461.5 970.9,1470.3 961.6,1490.2 955,1508.2 937.2,1558.6 921.8,1578.2 893.8,1602 890.5,1614.3 891.7,1620.3 903.4,1649.6 
		904.9,1661.9 899.8,1689.4 891.4,1725.8 858.8,1760.5 842.6,1804.5 828.7,1813.5 794.7,1834.3 711.5,1852.7 671.7,1842.7 
		652.4,1812 641.9,1802.7 634.3,1790.3 619.3,1768.6 605.7,1752.9 550.9,1744.5 537,1742.7 524.6,1745.4 516.8,1752.9 512,1769.8 
		511.7,1789.7 508.4,1801.8 500.5,1812.3 494.2,1821.3 477,1833.4 458,1872.6 448.4,1900 425.8,1962.4 390.2,1975.3 385.7,1976.8 
		347.5,1965.7 330.6,1965.4 298.9,1943.4 279.7,1909.3 236.3,1922.3 228.7,1925.3 214.6,1938.6 197.4,1958.2 190.8,1981.1 
		182.6,2014.5 186.2,2059.1 190.5,2092.6 204,2184.8 205.2,2202.9 204.9,2221.2 204.6,2235.1 183.5,2306.5 181.7,2315.6 
		176.9,2335.4 180.5,2381.3 267.9,2384.6 497.8,2390 806.1,2400.2 1097.5,2405.1 1229.2,2409 1231,2406 1231.3,2389.1 
		1231.6,2370.7 1233.4,2355.6 1241.3,2346.6 1243.1,2328.2 1246.4,2315.9 1238.8,2306.8 1232.8,2300.5 1225.6,2277.3 1213.5,2257.4 
		1215.3,2246.6 1203.6,2217.3 1205.4,2196.2 1201.2,2182.4 1202.7,2170 1203,2151.6 1205.4,2115.2 1209,2067.9 1215.9,2034.1 
		1228.3,2016 1244.6,1972 1249.4,1960 1250.9,1949.1 1260.5,1931 1263.6,1926.5 1266.9,1920.5 1271.7,1914.5 1277.7,1911.5 
		1297.6,1911.8 1300.6,1911.8 1306.9,1912.1 1311.5,1909 1314.8,1903 1316.3,1895.2 1313.6,1873.8 1314.2,1849.4 1314.8,1812.6 
		1319.9,1774.6 1317.2,1751.7 1319,1742.4 1320.5,1736.4 1322.6,1715 1325.9,1695.1 1324.4,1686 1319.9,1682.7 1306,1691.8 
		1299.7,1705.3 1287.4,1712.9 1274.7,1734 1263.9,1743 1241.9,1764.1 1220.8,1749.9 1214.7,1742.1 1211.7,1734.6 1215,1722.2 
		1225.9,1708.6 1240.3,1683 1254.8,1639 1258.1,1633 1276.8,1616.4 1285.9,1608.9 1306.3,1584.8 1317.2,1572.7 1328.6,1540.8 
		1332.3,1508.9 1333.8,1504 1346.4,1490.8 1352.8,1467.9 1363.6,1466.4 1379.9,1504.9 1390.4,1509.8 1401.3,1506.7 1401.6,1479.3 
		1405.2,1453.4 1397.7,1438 1387.1,1425.7 1373.5,1425.4 1361.5,1411.2 1354.3,1388.3 1327.1,1346.4 1325.9,1335.9 1332.6,1310 
		1329.5,1302.1 1311.5,1288.3 1299.4,1266.6 1299.7,1249.7 1291,1222 1294.3,1215.9 1311.5,1191.8 1319.6,1168.9 1324.4,1153.9 
		1330.8,1146.3 1357,1136.1 1367.8,1134.6 1375.4,1140.9 1390.7,1131.9 1399.8,1141.2 1405.8,1149 1405.5,1170.4 1405.2,1181.3 
		1406.4,1191.8 1409.7,1194.8 1417.2,1202.7 1423.3,1198.2 1420.6,1172.2 1426.9,1160.2 1427.2,1150.8 1421.5,1127.9 1423,1121.9 
		1435.6,1096 1442,1090 1482,1070.7 1501,1039 	"/>
	<polygon fill="#0C9BFF" points="230.5,1225 236.3,1243.4 232.3,1286.2 236.6,1307.6 253.4,1318.7 280.6,1337.4 296.8,1368.4 
		310.4,1379.3 331.5,1399.5 359.8,1453.7 374.9,1457 387.5,1446.5 404.4,1442.3 416.8,1431.7 435.1,1429 447.5,1433.8 461.4,1433.8 
		461.4,1421.8 456.8,1416.9 440.3,1404.6 420.7,1384.4 413.4,1359.7 424.6,1251.2 435.1,1181 427.6,1171.9 411,1160.8 400.5,1140.6 
		377.9,1121.9 303.2,1111.4 260.1,1115.3 249.2,1125.8 238.1,1143.9 228.4,1168.3 226.6,1180.4 232.3,1202.1 	"/>
	<polygon fill="#0C9BFF" points="137.4,1542.9 153.1,1529.3 191.4,1533 192.9,1528.4 170.3,1503.7 139.8,1498.6 115.4,1492 
		94.3,1473.3 63.3,1485 35.3,1505.8 19.3,1546.8 1.8,1587.8 0,1599.9 2.7,1620 3.9,1626.1 20.8,1632.4 31.3,1643.3 45.2,1645.1 
		54.2,1651.4 79,1645.7 92.5,1646 109.7,1637.2 112.7,1629.7 132.9,1614.6 140.7,1616.4 148.3,1613.4 151.6,1601.4 138.3,1582.7 
		133.8,1573.3 135.6,1550.4 	"/>
</g>
</svg>
