<svg version="1.1" xmlns="http://www.w3.org/2000/svg" x="0" y="0" viewBox="0 0 318.8 141.5" xml:space="preserve"><path d="M318.6 2.1c-0.3-1.1-1.2-2.4-3.7-2.1l-2.1 0.2c-2.1 0.2-4.3 0.5-6.4 0.7 -0.6 0.1-1.4-0.1-2-0.2 -2.1-0.4-3.6 0.5-4 2.4 -0.1 0.4-0.3 0.9-0.4 1.4 -0.2 0.5-0.4 1-0.5 1.6 -1.7 6.8-2.3 13.8-3 20.6l-0.2 2.6c-0.3 2.9-0.4 5.8-0.6 8.7l0 0.2c-0.1 1.8-0.2 3.5-0.3 5.2 -0.2 2.9-0.4 5.9-0.6 8.8 -0.2 2.7-0.4 5.3-0.6 8 -0.1 1.1-0.1 2.2-0.1 3.3 0 0.8 0 1.5-0.1 2.3 -0.1 1.5 0.4 2.8 1.5 4.1 1.7 2.1 4.2 3.2 6.8 3.2 0 0 0 0 0 0 0.2 0 0.4 0 0.5 0 2.6-0.1 5.2-0.5 7.8-0.9l1.5-0.2c1.7-0.2 3.1-1.1 4.2-2.4l0.6-0.7 -0.3-0.9c-0.8-2.7-1.9-3.5-4.5-3 -0.9 0.2-1.8 0.3-2.7 0.5 -1.8 0.3-3.7 0.7-5.5 0.9 -1.2 0.1-1.7 0.1-2 0.1 0-0.3 0-0.9 0.1-2.1 0.3-2.8 0.5-5.7 0.7-8.2 0.1-1.3 0.2-2.6 0.3-3.9 0.2-2.4 0.4-4.7 0.6-7.1l0.2-2.5c0.1 0 0.3 0 0.4-0.1l1.6-0.3c1.7-0.3 3.5-0.6 5.3-1 3-0.6 2.8-2.8 2.7-3.5 -0.3-1.8-1.7-2.9-3.6-2.8 -0.2 0-0.5 0-0.7 0l-0.1 0c-0.2 0-0.4 0-0.6 0l-4.7 0.3c0.3-6.8 1.3-13.4 2.5-20.3 0.4-2.2 0.7-4.5 1.1-6.8l0.2 0c1.2-0.1 2.2-0.3 3.3-0.4 1.3-0.2 2.6-0.4 4.3-0.8 0.6-0.1 1-0.4 1.4-0.6 0.1 0 0.1-0.1 0.2-0.1C317.5 6 319.4 4.8 318.6 2.1zM309.3 35.5L309.3 35.5 309.3 35.5 309.3 35.5zM129.8 76.7c0-0.6-0.1-1.3-0.3-1.9v0c-0.9-3.4-2.9-5.6-5.8-6.6 -3.7-1.2-5.8-0.4-8.4 3.3 -3.3 4.6-5.7 9.2-7.4 13.8 -0.5-3.7-2.3-7.3-5.5-10.9 -1-1.1-2.4-2.2-4.3-3.2 -3.2-1.7-6.1-1.1-8.2 1.6 -1.1 1.5-2.3 3.3-2.8 5.4 -0.3 1.5-0.7 2.9-1 4.4 -1.6 6.9-3.3 14-4.3 21.2 -1.2 8-1.9 16.2-2.6 24.1 -0.2 2.6-0.4 5.2-0.7 7.8 -0.6 5.2 1.4 5.1 1.4 5.1 0.7 0.2 1.5 0.3 2.4 0.3 0.8 0 1.6-0.2 2.3-0.6 1-0.6 1.5-1.6 1.7-3.1l0.1-0.9c0.3-2.3 0.7-4.8 0.8-7.2 0.1-5.4 0.9-10.9 1.6-16.1 0.2-1.2 0.3-2.4 0.5-3.6 0.3-2.3 0.7-4.7 1.1-7 0.3-1.8 0.6-3.7 0.9-5.5 0.7-4.7 1.8-11 3.7-17.1 0.3-1.1 0.7-2 1.3-2.8 1.1 1.3 2 2.8 2.2 4.5l0 0.4c0.3 3.1 0.7 6.3 0.7 9.4 0 3-0.2 6.1-0.3 9 -0.1 2.2-0.2 4.4-0.3 6.6 -0.2 9.8-0.4 18.7-0.4 27.2 0 1.4 0.7 2.7 1.4 3.6 1 1.2 2.7 1.8 4.3 1.5 1.3-0.3 2.2-1.1 2.6-2.2 0.6-2.1 1-4.1 1.3-6 0.2-1.6 0.3-3.2 0.4-4.7 0.2-2.4 0.4-4.9 0.8-7.3 2.2-11.2 4.7-22.1 6.5-30.3 0.8-3.6 2.5-7.1 5.5-11.4 0 0.2 0.1 0.5 0.1 0.7 0.3 2.3 0.7 4.5 0.6 6.6 -0.2 7.6-0.8 15.1-1.4 22.7 -0.3 3.7-0.7 7.4-1.1 11.1 -0.2 2.1-0.5 4.2-0.7 6.3 -0.3 3.5-0.1 7.2 0.8 11.2 0.1 0.7 0.7 1.8 1.7 2.2 1.1 0.4 2.3-0.3 2.9-0.8 0.7-0.7 1.5-1.5 1.7-2.5 0.6-2.4 1.3-4.8 1.6-7.3 0.2-1.8 0.3-3.6 0.4-5.4 0.1-1.4 0.1-2.9 0.3-4.3 0.5-4.9 1-9.9 1.6-14.7l0.1-0.8c0.9-7.7 1.6-15.9 0-24.3C129.8 77.5 129.8 77.1 129.8 76.7zM161 75.7c-1.4-1.1-3.6-2.7-6-3.5 -0.9-0.3-1.8-0.6-2.7-0.8 -2-0.6-3.9-1.1-5.5-2.2 -1.6-1.1-3-1.1-3.9-0.8 -0.9 0.3-2.1 0.9-2.8 2.7 -0.8 2.1-1.7 4.5-2.1 7.1 -1 6.1-1.9 11.6-2.4 17.2l-0.3 3.8c-0.8 8.5-1.6 17.4-1.4 26.2 0.1 3.1 0.3 6.4 2 9.5 2.3 4.1 7 6.7 12.2 6.7h0c0.9 0 1.8-0.1 2.6-0.2 3-0.5 5.9-1.3 7.6-3.9 1.5-2.3 2.6-5 3.4-7.8 1.1-4.2 1.2-8.3 0.3-12.4 -0.6-2.7-1.6-5.4-2.9-7.7 -0.8-1.5-2-2.7-3.6-3.8 3.4-1.5 5.9-3.7 7.2-6.4 1.4-3.1 2.7-6 3.2-9.3C167.2 83.9 165.5 79.2 161 75.7zM144.7 132.7l-0.1-0.4c-0.3-1.2-0.5-2.3-0.5-3.3 0-4.7 0.1-8.8 0.3-12.7 0.1-2.1 0.3-4.3 0.5-6.5l0.1-1 0 0c1.7 0.6 3.4 1.1 4.9 1.7 0.3 0.1 0.7 0.5 0.8 0.7 0.3 0.5 0.5 1 0.8 1.5 1.2 2.2 2.3 4.3 2.5 6.7 0.2 2.5 0 5.2-0.6 8.5 -0.4 2.4-1.9 4.4-3.2 5.9 -0.6 0.7-2.2 0.9-4.5 0.6C145.3 134.4 145.1 134.3 144.7 132.7zM146.1 100.9c0.2-5.5 2.2-18.2 3.6-23.2 0.1 0 0.2 0 0.3 0.1 1.2 0.3 2.4 0.6 3.4 1.3 3.1 2.2 4.2 5 3.4 8.8 -0.3 1.6-0.9 3.2-1.4 4.8 -0.3 0.8-0.5 1.6-0.8 2.4 -0.7 2.4-2.4 4-5.1 5C148.3 100.4 147.2 100.6 146.1 100.9zM230 63.8l0.4-0.3L230 63.8c2.9 3.9 8.4 5.3 12.2 5.3 1.6 0 3-0.2 4.1-0.7 1.6-0.6 2.7-1.5 3.3-2.5l0.5-0.9c1.2-2.1 2.5-4.4 3.1-6.8 2.1-8.6 3.6-17.7 4.6-28l0.1-1.2c0.1-0.9 0.2-1.9 0.3-2.8l0.1-1.4c0.1-2.3 0.3-4.7 0.3-7 0-1.6-0.1-3.3-0.2-4.8 -0.2-2.7-0.3-5.2 0.1-7.7 0.3-2.2-1.3-4.5-3.7-5.1 -1.2-0.3-2.2-0.2-3 0.3 -0.8 0.5-1.3 1.3-1.4 2.4 -0.3 1.8-0.6 3.7-0.5 5.6l0.1 1.6c0.3 5.4 0.6 11-0.3 16.4 -0.7 4.2-1.3 8.6-1.8 12.4 -0.4 2.8-0.8 5.6-1.2 8.5 -0.1 0.9-0.3 1.7-0.5 2.6 -0.3 1.3-0.6 2.6-0.7 4 -0.2 2-0.7 4-1.7 6 -1.5 2.9-1.7 3-4.9 2.3 -0.8-0.2-1.2-0.5-1.6-1.4 -1.8-4-2.6-8.5-2.5-13.6 0.2-7.1 0.6-14.2 0.9-20.2 0.3-5.2 0.8-10.6 1.2-15.7l0.2-2.7c0.1-1.4 0.1-3.2-1.1-4.8 -1.2-1.6-2.8-2.3-4.8-1.9 -2.7 0.5-3 2.9-3.1 3.9 -0.1 1-0.2 2-0.3 3.1 -0.3 3.2-0.7 6.5-0.9 9.9 -0.3 5.2-0.5 10.5-0.8 15.7l0 1.1c-0.1 1.7-0.1 3.3-0.2 5 -0.2 5.1-0.4 10 0.6 14.6C227.4 59 228.4 61.6 230 63.8zM203 75.5c-0.9-0.2-1.8-0.1-2.6 0 -0.3 0-0.5 0-0.7 0l-1.7 0 -0.2 4.3c-0.1 1.7-0.2 3.3-0.3 4.8 -0.1 1-0.2 2-0.3 3.1 -0.2 1.6-0.3 3.2-0.4 4.8 -0.3 8.1-1.2 16.4-2.2 24.3l0.5 0.1 0 0 -0.5 0c-0.2 1.6-0.4 3.2-0.6 4.8 -0.4 3.3-1 7.2-3.2 10.8 -0.6 1.1-1.6 1.7-2.8 1.9 -1.3 0.2-2.7-0.2-3.8-1.2 -2.1-1.8-3.4-3.9-3.9-6.3 -0.9-4.3-1.2-8.4-1-12.3 0.1-1.6 0.1-3.3 0.1-4.9 0.1-4.1 0.2-8.4 1-12.4 1-5.1 1.3-10.2 1.6-15.2 0.1-1.5 0.1-3 0.2-4.4 0.1-2.3-0.8-4.1-2.8-5.4 -1.3-0.9-2.9-1.1-4.2-0.7 -1.3 0.4-2.2 1.4-2.6 2.8 -0.4 1.4-0.7 2.8-0.9 4.2 -0.1 1.3-0.2 2.6-0.3 3.9l0 0.1c-0.1 1.9-0.3 3.9-0.5 5.8 -1 6.8-1.6 13.2-1.8 19.4 -0.2 6.3-0.2 11.9 1.1 17.7 1.6 7.1 5.5 11.7 11.8 14.3 1.8 0.7 3.8 1.1 5.3 1.3 0.6 0.1 1.3 0.2 2 0.2 4.3 0 8.6-2.3 10.4-5.7 1.2-2.2 2.3-4.6 2.8-7.1 0.8-3.7 1.3-7.5 1.8-11.2l0.4-2.9c0.4-2.4 0.6-4.9 0.9-7.5 0.5-5.2 0.9-10.7 1.3-16.2 0.2-2.6 0.5-6.4 0.6-10.3C207.6 77.9 206 76 203 75.5zM286.3 69.6l1.1-0.5 -0.1-1.2c-1-12.1-2.4-24.1-4.1-36.6 3.3-3.5 5.8-8.1 7.2-13.3 1.5-5.8 0.6-10.5-3-14.4 -2.5-2.8-5.9-4-9.5-3.3 -3.7 0.7-6.8 3.4-8.1 7.1 -2.1 5.8-3.5 12.1-4.7 20.5 -0.3 2.1-0.5 4.2-0.7 6.2 -0.3 3-0.7 6.2-1.2 9.2 -0.6 3.2-0.9 6.5-1.1 9.7 -0.1 1.1-0.2 2.2-0.3 3.4 -0.2 2.6-0.4 5.2-0.6 7.7l-0.1 1.5c0 0.7 0 1.5 0 2.2 0.1 1.8 1.3 3.1 3.2 3.4 0.4 0.1 0.8 0.1 1.1 0.1 0.9 0 1.7-0.2 2.4-0.7 1.2-0.9 1.4-2.4 1.5-3.4l0.5-5c0.5-5.1 1-10.1 1.5-15.2 0.3-3.3 0.8-6.6 1.2-9.8l0.2-1.3c0.1-0.6 0.2-1.2 0.3-1.7l2.9 0.1 0.2 1.7c0.3 2.2 0.6 4.4 0.9 6.5 0.3 1.9 0.5 3.8 0.8 5.7 0.4 3.1 0.8 6.4 1.3 9.6 0.5 3.3 1 6.4 1.6 9.4 0.2 1 0.6 2.3 1.9 3C283.7 70.7 285.1 70.2 286.3 69.6zM281.6 16.5c-0.9 3.1-2.6 6.1-4.9 8.9 -0.7 0.9-1.6 1.3-2.9 1.7l0.3-1.5c0.6-3.1 1.1-6 1.8-8.8 0.5-2 1.3-4.1 2-6.1 0.3-0.7 0.6-1.5 0.8-2.2 0.3-0.7 1-1.2 2.1-1.8 0.2-0.1 0.4-0.2 0.4-0.2 0.1 0.1 0.2 0.3 0.4 0.7C282.7 9.9 282.7 12.8 281.6 16.5zM307.5 79.2c-5.6-0.7-10.1 0.9-12 4.4 -0.3 0.5-0.6 1-0.9 1.6 -0.5 0.8-1 1.6-1.4 2.4 -3.4 6.9-4.9 14.2-6.3 21.3l-0.1 0.5c-1.1 5.6-2 11.2-2.8 16.7l-0.4 2.6c-0.4 2.4-0.6 4.8-0.8 7.2l-0.1 1.4c-0.2 2.1 1.2 3.7 3.5 4.1 0.3 0 0.5 0.1 0.8 0.1 1.7 0 3-0.9 3.6-2.5l0.2-0.5c0.3-0.7 0.6-1.5 0.7-2.3 0.7-3.7 1.4-7.4 2.2-11.1l1-5.1 9.7-0.4c-0.2 1.9-0.2 3.9-0.3 5.8 -0.1 3.2-0.3 6.6-0.8 10l-0.1 0.7 0.5 0.7c0.1 0.1 0.2 0.3 0.3 0.4 1.2 1.8 3 2.6 5 2.2 2-0.4 3.3-1.8 3.7-3.9 0.2-1.2 0.4-2.3 0.5-3.4 0.1-1.7 0.3-3.3 0.4-5 0.2-2.5 0.4-5.1 0.7-7.6 0-0.5 0.2-1.1 0.3-1.7 0.1-0.6 0.3-1.2 0.4-1.9 0.1-1.1 0.2-2.2 0.3-3.3l0-0.1c0.1-0.8 0.1-1.7 0.2-2.5 0.1-0.9 0.2-1.9 0.3-2.8 0.2-1.5 0.4-3.1 0.5-4.6 0.1-2.2 0.1-4.3 0.1-6.4l0-1.3c0-0.3 0-0.6 0-0.9l0-0.2c0-3 0.1-6.2-1.5-9.3C313.1 81.3 310.8 79.6 307.5 79.2zM305.8 97.2c-0.3 5.3-0.6 10.9-0.9 15.4 -3.2 0.5-6.2 0.7-9.1 0.7 0.5-3.1 0.9-6 1.8-8.8 0.4-1.4 0.8-2.7 1.2-4.1 0.4-1.4 0.7-2.9 1.2-4.3 1.3-3.9 2.8-6.8 4.7-9.2 0.1-0.2 0.4-0.4 0.6-0.5 0.1-0.1 0.2-0.1 0.2-0.2 0 0 0 0 0 0 0.3 1.7 0.4 3.5 0.5 5.3C306 93.2 305.9 95 305.8 97.2zM276.5 76.2L276.5 76.2c-1.4-0.3-2.5-0.1-3.4 0.5 -1 0.6-1.6 1.6-1.9 3 -0.9 4.3-1.5 7.8-1.8 11 -0.4 3.7-0.7 7.4-0.9 11l-0.1 1.2c0 0 0 0 0 0 0 0-0.1 0-0.1 0 -0.8 0.2-1.7 0.3-2.6 0.5 -1.6 0.3-3 0.7-4.5 0.8l-0.2 0c-2.1 0.3-4.2 0.5-6 0.1l0.1-2.4c0.1-2.7 0.3-5.5 0.5-8.2 0.2-2.4 0.6-4.9 1-7.3 0.1-0.9 0.3-1.7 0.4-2.6 0.2-1.1 0.5-3.3-1.6-5.1 -1.5-1.3-3.4-1.8-5.7-1.6 -2.9 0.3-3.2 2.8-3.4 3.8l0.5 0.1 -0.5 0.1c-0.3 2.2-0.7 4.5-0.8 6.8 -0.1 2.2-0.1 4.4-0.1 6.6 0 3.3-0.1 6.6-0.3 9.9 -0.5 6.5-1.2 13.1-1.9 19.6l-0.1 0.6c-0.2 2.3-0.5 4.7-0.7 7 -0.1 0.7-0.2 1.5-0.3 2.2 -0.1 0.9-0.2 1.8-0.3 2.7 -0.2 1.9 1.2 3.9 3.1 4.6 0.7 0.2 1.3 0.3 1.9 0.3 0.8 0 1.6-0.2 2.3-0.6 0.8-0.5 1.8-1.5 2-3.5 0.3-2.9 0.7-5.8 1-8.7l0-0.3c0.3-2.7 0.6-5.3 0.9-8 0.3-2.6 0.5-5.2 0.8-7.9l0.2-1.6c4.9 0.7 8.1 0.5 13.6-0.8l-0.1 2c-0.1 3.3-0.2 6.3-0.4 9.4 -0.1 1.9-0.5 3.8-0.8 5.6 -0.2 1-0.4 1.9-0.5 2.9 -0.2 1.2-0.5 3.1 0.7 4.9 0.4 0.6 1.5 2.3 3.8 2.2 2-0.1 3.4-1.2 3.8-3.1 0.2-1 0.4-1.9 0.7-2.9 0.5-2 1-4.1 1.2-6.3 0.4-3.4 0.6-6.9 0.8-10.2 0.1-1.8 0.2-3.7 0.4-5.5 0-0.5 0.1-1.1 0.3-1.7 0.1-0.6 0.2-1.3 0.3-2 0.2-2.1 0.3-4.2 0.5-6.3l0-0.2c0.2-2.7 0.4-5.5 0.7-8.2 0.2-1.8 0.4-3.7 0.6-5.5l0-0.1c0.2-1.3 0.3-2.6 0.5-3.9C280.3 78.7 278.8 76.7 276.5 76.2zM148.8 38.8c-0.1 3.3 0.1 6.7 0.2 9.9l0 0.1c0.1 1.4 0.2 2.8 0.2 4.3l0.1 0.4c0.7 2.6 1.9 4.6 3.8 6.4 3 2.9 6.6 4.2 11.3 4.2 0.2 0 0.4 0 0.6 0 3-0.1 5.3-1.6 6.7-4.5 2.3-4.5 3.1-9.4 3.6-13.5 0.9-7.5 1.9-17.5 1.9-27.8 0-2.8 0.1-5.6 0.2-8.3l0-0.7c0-1.1 0.1-2.2 0.1-3.3 0-2.2-1.4-4.6-3.3-5.5 -1.2-0.5-2.3-0.5-3.3 0 -1 0.5-1.7 1.6-1.9 2.9 -0.1 0.5-0.1 0.9-0.1 1.3l0 0.4c-0.1 2-0.1 3.9-0.1 5.9 -0.1 4.3-0.2 8.7-0.5 13 -0.6 8.5-1.5 17-2.3 24.2 -0.3 3-1.1 5.7-2.2 8.1 -0.6 1.3-1.1 1.4-2.5 1.1 -1.2-0.2-2.1-1.3-2.5-2.9 -0.9-4.8-0.9-9.7-0.8-14.5l0-2c0-0.8 0-1.6 0-2.4l0-0.2c0-3.3 0.1-6.6-0.1-10l0-0.1c-0.3-5.2-0.6-10.1 0.2-14.9 0.1-0.4 0.1-1 0.1-1.6 -0.1-2.7-2.3-5.2-4.8-5.4 -3.5-0.3-4.3 2-4.6 4.4 -0.3 2.6-0.3 5.2-0.3 7.7 0 3.3 0.1 6.7 0.2 10.1C148.8 29.9 149 34.4 148.8 38.8zM6.6 56.4c0.1 0 0.2 0 0.4 0 2-0.1 3.4-1.4 3.7-3.4 0-0.3 0.1-0.6 0.1-0.9 0-0.2 0-0.4 0.1-0.5l2.2-16.3c0.6 0 1.2 0.1 1.7 0.1 2.7 0.2 4.9-0.4 6.7-1.8 3.5-2.7 5.5-6.3 6.8-9.1 1.1-2.4 1.5-5.1 1.1-8.6 0-0.4-0.1-0.8-0.1-1.2 0-0.2 0-0.5 0-0.7C29.3 10.6 28.6 6.8 25 4c-1.3-1-2.5-1.9-3.8-2.7C17.7-0.6 13.6-0.4 10.6 2 10.2 2.2 9.3 3 9 4.1c-1 3.6-2 6.8-2.8 10.1C5.2 18 5.1 21.8 4.9 25.5l-0.1 1.6c-0.1 3.3-0.3 6.5-0.7 9.6 -0.3 2.7-0.7 5.5-1.1 8.3 -0.3 1.8-0.5 3.6-0.8 5.3 -0.1 1 0 2 0.2 2.8C2.7 54.1 3.5 56.4 6.6 56.4zM17.9 7c0.3 0 0.7 0.1 1 0.4 1.3 1.3 1.7 3 2 4.9 0.1 0.7 0.1 1.5 0.2 2.3 0 0.4 0 0.9 0.1 1.3 0.3 4.2-1.3 8-4.9 12 -0.7 0.7-1.5 1.1-2.5 1.1 -0.1-4.1 0-9.4 1.4-14.5v0c0.3-1 0.5-2.1 0.7-3.2 0.2-1.1 0.5-2.3 0.8-3.4 0.1-0.5 0.7-0.7 0.9-0.8C17.5 7 17.7 7 17.9 7zM227.5 75.7c-3.4-0.2-6.3 1.2-8.4 3.9 -0.9 1.1-1.8 2.4-2.5 3.7 -2.9 5.4-4.7 11.6-5.4 18.9 -0.6 6-0.8 12.2-1 18.1l-0.1 2.6c-0.1 2.7 0.4 5.6 1.6 8.7 1.7 4.6 8.2 9.7 14.7 9.7 0.7 0 1.4-0.1 2.1-0.2 2.7-0.5 6.2-1.1 7.9-4.5 1-1.8 0.7-3.5-0.9-4.9 -2.1-1.8-4.1-0.5-5 0.1l-0.4 0.2c-1.1 0.8-2.2 1.5-3.4 2 -1.8 0.8-2.5 0.7-4-0.8 -1.5-1.4-2-3.2-2.4-5.6 -0.7-4.3-0.4-8.6-0.2-13.1l0.1-2.1c0.5-8.3 2.1-16.1 4.9-23.2 0.9-2.3 2.1-4.2 3.8-5.8 0.9-0.9 1.4-1 1.6-1 0.1 0 0.5 0.1 1.2 0.8 1.9 1.8 3.8 1.8 5.6 1.6l1.1-0.1 0.4-1c0.9-2.2-0.6-3.8-1.1-4.3C234.8 76.5 230.9 75.9 227.5 75.7zM140.5 61.6c2.3-2.2 3.4-5.4 3-8.2 -0.4-2.8-1.7-3.5-4.3-4l-1.4-0.2 -0.6 1.3c-0.1 0.3-0.2 0.6-0.4 0.9 -0.3 0.7-0.6 1.4-1 2 -0.8 1.3-1.6 2.6-2.6 3.6 -0.5 0.5-0.8 0.6-0.8 0.6 0 0-0.3-0.2-0.8-0.9 -2.3-3.8-3.5-8.1-3.6-12.7 -0.2-7.2-0.1-16.8 2.2-26.1 0.8-3.5 1.8-6.8 3.9-9.3 0.5-0.6 1-1.1 1.2-1.2 0.2 0 0.7 0.4 1.3 1 1.6 1.4 3.4 1.6 5.2 0.5l1.1-0.6 -0.2-1.2c-0.5-2.6-1.3-3.8-3.5-4.9 -1.1-0.5-2.2-1-3.2-1.4l-0.1-0.1c-2.8-1.2-5.6-0.7-7.9 1.3 -2.3 2-4 4.7-4.9 7.8 -1 3.6-1.7 7.3-2.4 11.1 -0.8 4.2-0.9 8.4-1.1 12.5 -0.1 1.7-0.1 3.4-0.2 5.1 -0.4 6.2 0.6 11.8 2.9 17.3 2 4.8 5.6 7.7 10.5 8.5 0.4 0.1 0.9 0.1 1.3 0.1C136.4 64.4 138.7 63.4 140.5 61.6zM89.1 5L89.1 5l-0.5 0.1c0 0.3 0.1 0.6 0.2 1l0.7 1.8c0.7 1.7 1.4 3.5 2.2 5.3 1.9 4.1 4.1 8.4 8.8 11.2l0 0.2c-0.1 0.7-0.1 1.3-0.2 2 -0.2 1.5-0.4 3-0.5 4.6 -0.2 2.7-0.3 5.4-0.4 8.1l0 0.1c-0.2 3.3-0.3 6.8-0.6 10.2 -0.1 1.4-0.3 2.8-0.5 4.2 -0.1 1.1-0.3 2.2-0.4 3.3 -0.1 1.3 0.2 2.5 1 3.4 0.7 0.9 1.8 1.4 3.1 1.6 0.2 0 0.4 0 0.6 0 2.2 0 3.5-1.2 3.8-3.3 0.1-0.6 0.1-1.2 0.2-1.9 0-0.5 0.1-1 0.1-1.4 0.2-1.4 0.3-2.8 0.5-4.1l0-0.3c0.3-2.7 0.7-5.4 1-8.1 0.2-2 0.3-4 0.4-5.9 0.2-3.7 0.4-7.6 1.3-11.3 0.1-0.6 0.1-1.2 0.1-1.7 0-0.2 0-0.3 0-0.5 0 0 0 0 0-0.1 1.9-1.8 3.3-3.9 4.6-5.9 0.5-0.8 1-1.5 1.6-2.3 1.9-2.7 3.9-5.7 6.2-9.6 0.7-1.2 0.8-2.6 0.2-3.7 -0.7-1.3-2.2-2.1-4-2.1 -2.1 0-3.1 1.3-3.6 2.1l-0.1 0.1c-0.9 1.2-1.7 2.5-2.6 3.7l0.4 0.3L112.1 6c-1 1.4-2 2.9-3 4.3 -0.7 1-1.5 2-2.2 3l-0.2 0.2c-0.5 0.7-1.1 1.4-1.6 2.1 -0.5 0.7-0.9 1.2-1.5 1.7 -0.2-0.3-0.4-0.5-0.5-0.8l-0.4-0.8c-1.4-2.9-2.8-5.8-4-8.8 -0.6-1.6-1.6-2.8-3.1-3.8 -2-1.4-4.1-1.4-6.3 0l-1 0.6 0.2 1.4L89.1 5zM185.8 64.2c1.4 0.7 2.9 1.1 4.4 1.1 1.6 0 3.1-0.4 4.3-0.7 1.6-0.5 3.4-0.9 5.8-1.3 0.1 0 0.2 0 0.3 0 2.5 0.1 3.1-1.4 3.2-2.4 0.3-2.5-2.1-3.3-3-3.6 -0.4-0.1-0.9-0.2-1.5-0.2 -0.3 0-0.6 0-1 0 -1 0-1.9 0-2.9 0.1 -1.5 0.2-2.9 0.6-4.4 0.9 0-2.2 0.1-4.2 0.4-6 0.1-0.9 0.2-1.8 0.4-2.8 0.3-1.9 0.6-3.9 0.7-5.9 0.4-5.2 0.7-10.6 1-15.7l0.1-2.1c0.1-2 0.2-4.1 0.3-6.1 0.1-2.1 0.2-4.1 0.3-6.2 0.1-1.4 0.2-2.8 0.3-4.1l0-0.2c0.1-1.1 0.2-2.1 0.2-3.2 0.1-2-0.8-3.6-2.7-5 -1.2-0.8-2.6-1.1-3.8-0.6 -1.2 0.5-2 1.5-2.3 2.9 -0.3 1.5-0.7 3.6-0.9 5.7 -0.1 1.9-0.1 3.8-0.1 5.5 0 1.7-0.1 3.5-0.1 5.2 -0.2 4.7-0.5 9.4-0.8 14l-0.1 1c-0.2 2.5-0.3 5-0.4 7.6l0 0.6c-0.3 5.3-0.6 10.7-0.8 16.1C182.3 61.9 183.5 63.1 185.8 64.2zM67.4 55.6c0.1 1.5 0.8 3.5 4 4.5 1.1 0.3 2.3 0.5 3.5 0.5 2.8 0 5.6-0.9 7.9-1.8 1.1-0.4 2.2-0.8 3.3-1.3l2.3-0.9c0.4-0.1 0.8-0.3 1.2-0.5l2.2-0.9 -0.7-1.7c-0.9-2.3-1.9-3.3-4.8-2.8 -2.1 0.4-4.3 1-6.4 1.5l-0.6 0.2c-0.8 0.2-1.6 0.5-2.4 0.8 0-0.7-0.1-1.3-0.1-2 -0.1-2.5-0.3-4.9 0-7.2 0.1-1 0.3-2 0.4-3.1 0.4-2.7 0.8-5.6 0.9-8.4 0.1-4.3 0.3-8.5 0.5-12.8l0.3-8.5c0.1-2 0.2-4.1 0.2-6.1 0-1.4-0.5-2.7-1.5-3.6 -1.1-1-2.6-1.5-4.2-1.4 -2.5 0.1-3.3 1.7-3.6 2.6 -0.1 0.4-0.2 0.7-0.3 1.2 0 0.1-0.1 0.3-0.1 0.4 -0.9 4-1 7.9-1 11.7l0 0.2c-0.2 10.4-0.7 19.6-1.5 28.1 -0.2 2.6 0 5.1 0.2 7.6C67.2 53.2 67.3 54.4 67.4 55.6zM213.6 67.6c2.6-0.5 2.6-3 2.6-3.8 0-0.1 0-0.2 0-0.3 0.2-2.6 0.2-5.2 0.3-7.8l0-1.7c0.1-2.7 0.2-5.4 0.2-8.1l0-0.1c0.2-5.4 0.3-11 0.5-16.4 0.2-4.6 0.5-9.3 0.9-13.8l0-0.4c0.1-1.7 0.3-3.3 0.5-5.1l0.1-1.2 0.3-0.1c1.1-0.3 2.1-0.5 3-0.9 2.6-0.8 2.9-2.9 2.9-3.7 0-1.9-1.6-3.8-3.4-4.1 -0.6-0.1-1.9-0.2-3.1 0.2 -4.9 1.7-9.9 2.5-15.1 3.4l-0.2 0c-1 0.1-2.6 0.4-3.3 2.2l-0.2 0.5 0.1 0.7c0 0.2 0.1 0.6 0.3 0.9 0.2 0.3 0.4 0.6 0.7 0.9 2.3 2.3 5.1 2.2 7.6 1.9 0.4 0 0.7-0.1 1.1-0.1 -0.1 2.6-0.2 5.1-0.4 7.7l0 0.4c-0.2 5.3-0.5 10.9-0.7 16.3 -0.1 3-0.2 6.1-0.2 8.9 -0.1 3-0.1 6.1-0.2 9.1 -0.1 1.4-0.2 2.8-0.4 4.2 -0.1 1.1-0.3 2.4-0.3 3.6 -0.1 1.3 0.1 2.7 0.5 3.8 0.6 1.8 2.9 2.8 4.7 2.8C213 67.6 213.3 67.6 213.6 67.6zM32.8 62c-2.7-0.7-3.7 0.8-4.5 2.4 -0.2 0.4-0.4 0.9-0.6 1.5C24.1 76.6 18.9 87.1 12 98c-0.4 0.6-0.7 1.1-1.1 1.7 0.1-3.4 0.2-6.8 0.3-10.1 0.1-6 0.2-12.3 0.8-18.4 0.1-1.1 0-2.2-0.3-3.2 -0.4-1.1-1.3-2.1-2.5-2.6 -1.2-0.5-2.6-0.5-3.8-0.1 -1.8 0.7-2 2.1-2.1 2.9l-0.1 0.3C2.4 72.7 2.4 76.9 2.3 81c0 0.8 0 1.5 0 2.3 -0.1 6.8-0.4 13.8-0.8 20.5 -0.1 1.7-0.2 3.4-0.2 5.2 -0.2 5.3-0.5 10.5-0.8 15.8 -0.1 2.9-0.3 5.8-0.4 8.7l0 0.7c-0.1 0.9-0.1 1.8 0 2.7 0.2 2.3 2.3 4.1 4.7 4.1 0.1 0 0.1 0 0.2 0 3.4-0.1 4-2.4 4.2-4.1l0-0.4c0.1-0.6 0.1-1.2 0.2-1.8l0.2-3.7c0.2-5.5 0.5-11.3 0.7-16.9 0-0.9 0.4-1.7 1.3-2.5l0.2-0.1c1-1 2.1-1.9 3-3.1 1-1.3 2-2.6 3.1-4.1l6.2 29.4 0.1 0.4c0.1 0.5 0.2 1 0.4 1.5 0.9 2.4 4 3.9 6.6 3.2 2.9-0.8 2.2-3.6 1.9-5 -0.6-2.4-1.1-4.9-1.7-7.3 -1.1-4.6-2.2-9.2-3.2-13.8 -0.4-1.9-0.9-3.9-1.3-5.8 -0.7-3.4-1.5-6.9-2.4-10.4 -0.3-1-0.1-1.6 0.5-2.6 1.7-2.8 3.1-5.4 4.3-7.9 1.1-2.3 2.1-4.8 3-7.1l0.2-0.5c0.8-2.1 1.6-4.2 2.3-6.3l0.8-2.3c0.1-0.2 0.2-0.5 0.3-0.7 0.3-0.7 0.6-1.4 0.7-2.2C36.6 64.5 35.2 62.6 32.8 62zM60.4 68.1c-6.1-1.6-11 0.4-14.5 6.6 -2.7 4.8-4.8 10-5.7 15.7 -0.7 4.2-1.3 8.4-1.7 12.7 -0.8 8-0.6 16 1.8 23.6 1.4 4.5 3.5 8 7.3 10.4 5.6 3.5 14.3 3.1 19.4-3.9 4.4-6.1 6.6-13.2 8.3-20.7 0.7-3.4 0.8-7 1.2-10.5 0.4-4 0.2-16.9-1.4-20.5C72.1 74.2 67.1 69.9 60.4 68.1zM63.7 117.1c-1.5 3.8-2.5 7-5.2 10.1 -1.9 1.7-7.3 1.1-8.3-1 -1.9-3.7-3.1-6.9-3.1-11.3 0-10.2 1.2-20.2 4.4-29.8 0.6-1.8 1.4-3.6 2.4-5.2 1-1.7 6.6-5.9 11.7 1.3 1.6 2.3 2.3 5.2 2.2 7.9C68.1 99.1 67.1 108.3 63.7 117.1zM45.8 58c4.9 1.3 8.9-0.3 11.7-5.3 2.2-3.9 3.9-8.1 4.6-12.6 0.6-3.4 1.1-6.8 1.4-10.2 0.6-6.5 0.5-12.9-1.5-19 -1.2-3.6-2.8-6.5-5.9-8.4C51.7-0.4 44.7 0 40.6 5.5c-3.5 4.9-5.3 10.6-6.7 16.7 -0.6 2.7-0.7 5.6-0.9 8.4 -0.3 3.2-0.2 13.6 1.1 16.5C36.4 53.1 40.4 56.6 45.8 58zM43.5 19.3c1.1-2.8 2.5-5.4 4.6-7.4 0.7-0.6 1.4-1.2 2.2-1.6 1.5-0.7 2.6-0.2 3.4 1.4 1.4 2.8 2.4 5.9 2.4 9.2 0 7.7-0.9 15.2-3.3 22.5 -0.5 1.4-1.1 2.7-1.8 3.9 -0.7 1.3-5 4.4-8.8-1 -1.2-1.7-1.7-3.9-1.7-5.9C40.2 32.9 40.9 25.9 43.5 19.3z"/></svg>